<svg width="40" height="49" viewBox="0 0 40 49" fill="none" xmlns="http://www.w3.org/2000/svg">
<g filter="url(#filter0_i)">
<path d="M28 1H5C3.93913 1 2.92172 1.42143 2.17157 2.17157C1.42143 2.92172 1 3.93913 1 5V44C1 45.0609 1.42143 46.0783 2.17157 46.8284C2.92172 47.5786 3.93913 48 5 48H35C36.0609 48 37.0783 47.5786 37.8284 46.8284C38.5786 46.0783 39 45.0609 39 44V5C39 3.93913 38.5786 2.92172 37.8284 2.17157C37.0783 1.42143 36.0609 1 35 1H28Z" fill="#00546B"/>
</g>
<path d="M28 1H5C3.93913 1 2.92172 1.42143 2.17157 2.17157C1.42143 2.92172 1 3.93913 1 5V44C1 45.0609 1.42143 46.0783 2.17157 46.8284C2.92172 47.5786 3.93913 48 5 48H35C36.0609 48 37.0783 47.5786 37.8284 46.8284C38.5786 46.0783 39 45.0609 39 44V5C39 3.93913 38.5786 2.92172 37.8284 2.17157C37.0783 1.42143 36.0609 1 35 1H28Z" stroke="#00546B" stroke-opacity="0.5" stroke-width="2" stroke-linecap="round" stroke-linejoin="round"/>
<rect x="6" y="15" width="29" height="4" rx="2" fill="#009A99"/>
<rect x="6" y="25" width="29" height="4" rx="2" fill="#009A99"/>
<rect x="6" y="35" width="29" height="4" rx="2" fill="#009A99"/>
<g filter="url(#filter1_d)">
<circle cx="12.4977" cy="35.2265" r="3" transform="rotate(40 12.4977 35.2265)" fill="white"/>
<rect x="30.126" y="9" width="6" height="26" rx="3" transform="rotate(40 30.126 9)" fill="white"/>
</g>
<defs>
<filter id="filter0_i" x="0" y="0" width="43" height="52" filterUnits="userSpaceOnUse" color-interpolation-filters="sRGB">
<feFlood flood-opacity="0" result="BackgroundImageFix"/>
<feBlend mode="normal" in="SourceGraphic" in2="BackgroundImageFix" result="shape"/>
<feColorMatrix in="SourceAlpha" type="matrix" values="0 0 0 0 0 0 0 0 0 0 0 0 0 0 0 0 0 0 127 0" result="hardAlpha"/>
<feOffset dx="3" dy="3"/>
<feGaussianBlur stdDeviation="2"/>
<feComposite in2="hardAlpha" operator="arithmetic" k2="-1" k3="1"/>
<feColorMatrix type="matrix" values="0 0 0 0 0 0 0 0 0 0 0 0 0 0 0 0 0 0 0.25 0"/>
<feBlend mode="normal" in2="shape" result="effect1_innerShadow"/>
</filter>
<filter id="filter1_d" x="7.27118" y="9" width="28.4511" height="35.453" filterUnits="userSpaceOnUse" color-interpolation-filters="sRGB">
<feFlood flood-opacity="0" result="BackgroundImageFix"/>
<feColorMatrix in="SourceAlpha" type="matrix" values="0 0 0 0 0 0 0 0 0 0 0 0 0 0 0 0 0 0 127 0"/>
<feOffset dy="4"/>
<feGaussianBlur stdDeviation="0.5"/>
<feColorMatrix type="matrix" values="0 0 0 0 0 0 0 0 0 0 0 0 0 0 0 0 0 0 0.25 0"/>
<feBlend mode="normal" in2="BackgroundImageFix" result="effect1_dropShadow"/>
<feBlend mode="normal" in="SourceGraphic" in2="effect1_dropShadow" result="shape"/>
</filter>
</defs>
</svg>
