<svg width="32" height="32" viewBox="0 0 32 32" fill="none" xmlns="http://www.w3.org/2000/svg">
<rect width="32" height="32" rx="5" fill="white"/>
<path d="M20.9211 2H8.21053C7.62426 2 7.062 2.24428 6.64745 2.67909C6.23289 3.11391 6 3.70365 6 4.31857V26.9247C6 27.5396 6.23289 28.1293 6.64745 28.5641C7.062 28.999 7.62426 29.2432 8.21053 29.2432H24.7895C25.3757 29.2432 25.938 28.999 26.3526 28.5641C26.7671 28.1293 27 27.5396 27 26.9247V4.31857C27 3.70365 26.7671 3.11391 26.3526 2.67909C25.938 2.24428 25.3757 2 24.7895 2H20.9211Z" fill="#00546B" stroke="#00546B" stroke-opacity="0.5" stroke-width="2" stroke-linecap="round" stroke-linejoin="round"/>
<rect x="8" y="10.4779" width="16.0263" height="2.31857" rx="1.15929" fill="#009A99"/>
<rect x="8" y="16.2744" width="16.0263" height="2.31857" rx="1.15929" fill="#009A99"/>
<rect x="8" y="22.0707" width="16.0263" height="2.31857" rx="1.15929" fill="#009A99"/>
<g filter="url(#filter0_d)">
<ellipse rx="1.69185" ry="1.70592" transform="matrix(0.750671 0.660676 -0.624694 0.78087 11.5908 22.2021)" fill="white"/>
<rect width="3.38369" height="14.7846" rx="1.69185" transform="matrix(0.750671 0.660676 -0.624694 0.78087 21.3328 7)" fill="white"/>
</g>
<defs>
<filter id="filter0_d" x="8.93286" y="7.70831" width="15.2653" height="20.2327" filterUnits="userSpaceOnUse" color-interpolation-filters="sRGB">
<feFlood flood-opacity="0" result="BackgroundImageFix"/>
<feColorMatrix in="SourceAlpha" type="matrix" values="0 0 0 0 0 0 0 0 0 0 0 0 0 0 0 0 0 0 127 0"/>
<feOffset dy="3"/>
<feGaussianBlur stdDeviation="0.5"/>
<feColorMatrix type="matrix" values="0 0 0 0 0 0 0 0 0 0 0 0 0 0 0 0 0 0 0.25 0"/>
<feBlend mode="normal" in2="BackgroundImageFix" result="effect1_dropShadow"/>
<feBlend mode="normal" in="SourceGraphic" in2="effect1_dropShadow" result="shape"/>
</filter>
</defs>
</svg>
