<svg width="32" height="34" viewBox="0 0 32 34" fill="none" xmlns="http://www.w3.org/2000/svg">
<path d="M21.0819 1H6.15203C5.4634 1 4.80297 1.28693 4.31604 1.79767C3.8291 2.3084 3.55554 3.00111 3.55554 3.7234V30.2766C3.55554 30.9989 3.8291 31.6916 4.31604 32.2023C4.80297 32.7131 5.4634 33 6.15203 33H25.6257C26.3143 33 26.9748 32.7131 27.4617 32.2023C27.9486 31.6916 28.2222 30.9989 28.2222 30.2766V3.7234C28.2222 3.00111 27.9486 2.3084 27.4617 1.79767C26.9748 1.28693 26.3143 1 25.6257 1H21.0819Z" fill="#00546B" stroke="#00546B" stroke-opacity="0.5" stroke-width="2" stroke-linecap="round" stroke-linejoin="round"/>
<rect x="6.80115" y="10.5319" width="18.8246" height="2.7234" rx="1.3617" fill="#009A99"/>
<rect x="6.80115" y="17.3404" width="18.8246" height="2.7234" rx="1.3617" fill="#009A99"/>
<rect x="6.80115" y="24.1489" width="18.8246" height="2.7234" rx="1.3617" fill="#009A99"/>
<g filter="url(#filter0_d)">
<ellipse rx="1.98725" ry="2.00377" transform="matrix(0.750671 0.660676 -0.624694 0.78087 11.019 24.3031)" fill="white"/>
<rect width="3.9745" height="17.366" rx="1.98725" transform="matrix(0.750671 0.660676 -0.624694 0.78087 22.4618 6.44679)" fill="white"/>
</g>
<defs>
<filter id="filter0_d" x="8.07153" y="7.27878" width="17.5814" height="23.067" filterUnits="userSpaceOnUse" color-interpolation-filters="sRGB">
<feFlood flood-opacity="0" result="BackgroundImageFix"/>
<feColorMatrix in="SourceAlpha" type="matrix" values="0 0 0 0 0 0 0 0 0 0 0 0 0 0 0 0 0 0 127 0"/>
<feOffset dy="3"/>
<feGaussianBlur stdDeviation="0.5"/>
<feColorMatrix type="matrix" values="0 0 0 0 0 0 0 0 0 0 0 0 0 0 0 0 0 0 0.25 0"/>
<feBlend mode="normal" in2="BackgroundImageFix" result="effect1_dropShadow"/>
<feBlend mode="normal" in="SourceGraphic" in2="effect1_dropShadow" result="shape"/>
</filter>
</defs>
</svg>
