<svg width="26" height="26" viewBox="0 0 26 26" fill="none" xmlns="http://www.w3.org/2000/svg">
<path d="M20 16.0001C18.3431 16.0001 17 14.6569 17 13.0001V13.0001C17 11.3432 18.3431 10.0001 20 10.0001H23C24.6569 10.0001 26 11.3432 26 13.0001V13.0001C26 14.6569 24.6569 16.0001 23 16.0001H20Z" fill="white" fill-opacity="0.7"/>
<path d="M3 16.0001C1.34315 16.0001 0 14.6569 0 13.0001V13.0001C0 11.3432 1.34315 10.0001 3 10.0001H6C7.65685 10.0001 9 11.3432 9 13.0001V13.0001C9 14.6569 7.65685 16.0001 6 16.0001H3Z" fill="white" fill-opacity="0.7"/>
<rect x="10" y="17.0001" width="6" height="9" rx="3" fill="white" fill-opacity="0.7"/>
<rect x="10" y="6.10352e-05" width="6" height="9" rx="3" fill="white" fill-opacity="0.7"/>
<path d="M13 16.0001C11.3431 16.0001 10 14.6569 10 13.0001V13.0001C10 11.3432 11.3431 10.0001 13 10.0001V10.0001C14.6569 10.0001 16 11.3432 16 13.0001V13.0001C16 14.6569 14.6569 16.0001 13 16.0001V16.0001Z" fill="white" fill-opacity="0.7"/>
</svg>
