<svg width="24" height="24" viewBox="0 0 24 24" fill="none" xmlns="http://www.w3.org/2000/svg">
  <path
    d="M16.0168 2.29813C17.0818 1.02891 18.974 0.863357 20.2433 1.92836V1.92836C21.5125 2.99337 21.678 4.88563 20.613 6.15486L18.4552 8.72652C17.3901 9.99575 15.4979 10.1613 14.2287 9.09629V9.09629C12.9594 8.03129 12.7939 6.13902 13.8589 4.8698L16.0168 2.29813Z"
    fill="#494949"/>
  <path
    d="M4.97624 15.4557C6.04124 14.1865 7.93351 14.021 9.20274 15.086V15.086C10.472 16.151 10.6375 18.0432 9.57251 19.3125L7.75727 21.4758C6.69226 22.745 4.8 22.9105 3.53077 21.8455V21.8455C2.26155 20.7805 2.096 18.8883 3.161 17.619L4.97624 15.4557Z"
    fill="#494949"/>
  <rect y="5.8288" width="6" height="26" rx="3" transform="rotate(-50 0 5.8288)" fill="#494949"/>
</svg>
