<svg width="35" height="37" viewBox="0 0 35 37" fill="none" xmlns="http://www.w3.org/2000/svg">
  <path
    d="M2.15288 25.6812C1.30363 24.9749 1.18773 23.7139 1.89402 22.8646L5.73056 18.2515C6.43685 17.4022 7.69786 17.2863 8.54712 17.9926L18.5422 26.3051C19.3915 27.0114 19.5074 28.2724 18.8011 29.1217L14.9646 33.7348C14.2583 34.5841 12.9972 34.6999 12.148 33.9937L2.15288 25.6812Z"
    fill="#494949"/>
  <path
    d="M4.96941 25.4223C4.12016 24.716 4.00426 23.455 4.71055 22.6058L8.54709 17.9926L18.5422 26.3051L14.7057 30.9183C13.9994 31.7675 12.7384 31.8834 11.8891 31.1771L4.96941 25.4223Z"
    fill="#C7C7C7"/>
  <path
    d="M23.1435 25.9948C22.4377 26.8445 21.1768 26.9611 20.3271 26.2553L8.78895 16.6704C7.9393 15.9646 7.8227 14.7036 8.52851 13.854L18.1134 2.31582C19.1721 1.04135 21.0635 0.866448 22.338 1.92517L32.3377 10.2321C33.6122 11.2908 33.7871 13.1822 32.7284 14.4567L23.1435 25.9948Z"
    fill="#494949"/>
  <path
    d="M24.2672 19.7898C24.1195 19.9675 23.8556 19.9919 23.6779 19.8443L14.3219 12.0722C14.1441 11.9245 14.1197 11.6606 14.2674 11.4829V11.4829C14.4889 11.2162 14.8847 11.1796 15.1513 11.4011L24.1854 18.9058C24.4521 19.1273 24.4887 19.5231 24.2672 19.7898V19.7898Z"
    fill="#E8E8E8"/>
  <path
    d="M26.2672 17.7898C26.1195 17.9675 25.8556 17.9919 25.6779 17.8443L16.3219 10.0722C16.1441 9.92447 16.1197 9.66064 16.2674 9.48286V9.48286C16.4889 9.21619 16.8847 9.17959 17.1513 9.40112L26.1854 16.9058C26.4521 17.1273 26.4887 17.5231 26.2672 17.7898V17.7898Z"
    fill="#E8E8E8"/>
  <path
    d="M28.2672 15.7898C28.1195 15.9675 27.8556 15.9919 27.6779 15.8443L18.3219 8.07216C18.1441 7.92447 18.1197 7.66064 18.2674 7.48286V7.48286C18.4889 7.21619 18.8847 7.17959 19.1513 7.40112L28.1854 14.9058C28.4521 15.1273 28.4887 15.5231 28.2672 15.7898V15.7898Z"
    fill="#E8E8E8"/>
  <line x1="0.999939" y1="36.5" x2="25.9999" y2="36.5" stroke="#494949"/>
</svg>
