<svg width="32" height="30" viewBox="0 0 32 30" fill="none" xmlns="http://www.w3.org/2000/svg">
  <path
    d="M8.572 3.16496C8.96542 2.05838 11.4224 0.732275 14.4895 0.211601C17.5565 -0.309073 20.7095 0.136729 23.512 1.48728C26.3145 2.83783 28.6277 5.0263 30.1314 7.74967C31.6351 10.473 32.2548 13.5966 31.9048 16.6877C31.5548 19.7789 30.2523 22.6847 28.1777 25.0029C26.1032 27.3211 23.3592 28.937 20.3257 29.6267C17.2922 30.3164 14.1193 30.0459 11.2464 28.8526C8.37341 27.6594 4.99999 24.4665 5 23C5.00001 21.5335 6.89804 19.8917 8.5 21C10.102 22.1083 11.1615 23.5679 13.1059 24.3756C15.0504 25.1832 17.1978 25.3662 19.2509 24.8994C21.3039 24.4326 23.1611 23.339 24.5652 21.77C25.9692 20.2011 26.8507 18.2344 27.0876 16.1423C27.3245 14.0501 26.9051 11.9361 25.8874 10.0929C24.8697 8.24975 23.3041 6.76858 21.4074 5.85452C19.5106 4.94046 17.3766 4.63874 15.3009 4.99113C13.2251 5.34353 13.5 5.5 12 6.59296C10.5 7.68592 8.17859 4.27155 8.572 3.16496Z"
    fill="#494949"/>
  <circle cx="4" cy="10" r="4" fill="#494949"/>
</svg>
